<svg height="462" viewBox="0 0 1596 462" width="1596" xmlns="http://www.w3.org/2000/svg"><g fill="none" fill-rule="evenodd" stroke="#392268" stroke-width="2" transform="translate(1.485506 2.76791)"><path d="m143.25647 55.3693866c27.996872 15.9310183 38.116224 51.1469534 22.937196 79.4873964l-.843279 1.67695c-14.504404 27.166578-4.553708 60.873259 22.599885 75.798108s61.222076 5.533932 76.56976-21.129561l1.011935-1.67695c16.190962-28.005053 52.11466-38.066749 80.786156-22.303425 28.840151 15.931018 39.296814 52.153123 23.274508 80.828956-47.22364 84.685939-154.488766 115.206417-239.491318 68.251836-85.3398641-46.95458-116.203886-153.608555-68.9802459-238.2944949 15.8536507-28.508138 51.6086929-38.9052237 80.4488439-23.6449851l.84328.5030848z" transform="matrix(.94551858 .32556815 -.32556815 .94551858 74.118607 -57.228939)"/><path d="m971.723871 152.030583c-3.183178-31.127431 19.906071-58.7476602 51.656489-61.4685665 31.2257-2.7340113 59.0673 19.9882595 62.20896 50.7503905l17.18949 168.466856c3.22636 31.489454-20.44573 59.250561-52.39374 61.550472l-171.278894 12.592178c-31.267211 2.37035-58.783352-20.756535-61.556387-51.561257-2.812887-31.168383 20.89905-58.565829 52.480095-60.824788l112.955496-8.254453z" transform="matrix(.27563736 .9612617 -.9612617 .27563736 923.556458 -751.17278)"/><path d="m722.776659 223.710831c18.629806 26.181513 12.979692 63.075257-12.837564 82.596676l-155.42812 117.189716c-26.215492 19.781752-63.086192 14.382286-82.533326-11.972409-19.443871-26.354004-13.886572-63.612129 12.327289-83.394226l155.428119-117.189717c25.980396-19.486851 62.433635-14.520554 82.019788 11.174169l.511907.797895z" transform="matrix(.98480775 .17364818 -.17364818 .98480775 64.157779 -98.857904)"/><path d="m1186.28007 235.664336c0 55.643543-44.82664 100.75-100.125 100.75s-100.124998-45.106457-100.124998-100.75 44.826638-100.75 100.124998-100.75 100.125 45.106457 100.125 100.75z"/><path d="m1562.77666 193.710831c18.6298 26.181513 12.97969 63.075257-12.83757 82.596676l-155.42812 117.189716c-26.21549 19.781752-63.08619 14.382286-82.53332-11.972409-19.44387-26.354004-13.88657-63.612129 12.32729-83.394226l155.42812-117.189717c25.98039-19.486851 62.43363-14.520554 82.01978 11.174169l.51191.797895z" transform="matrix(.98480775 .17364818 -.17364818 .98480775 71.709821 -245.178141)"/><path d="m246.280072 106.75c0 55.643543-44.82664 100.75-100.125 100.75-55.2983601 0-100.1250002-45.106457-100.1250002-100.75 0-55.6435432 44.8266401-100.75 100.1250002-100.75 55.29836 0 100.125 45.1064568 100.125 100.75z"/></g></svg>