<?xml version="1.0" encoding="UTF-8"?>
<svg width="1596px" height="463px" viewBox="0 0 1596 463" version="1.1" xmlns="http://www.w3.org/2000/svg" xmlns:xlink="http://www.w3.org/1999/xlink">
    <title>Group 4</title>
    <g id="*experiment*-/firefox/new---switch-banner" stroke="none" stroke-width="1" fill="none" fill-rule="evenodd">
        <g id="Group-4" transform="translate(1.500000, 2.915484)" stroke="#F5C14D" stroke-width="2">
            <path d="M246.442856,107.25 C246.442856,163.16969 201.616216,208.5 146.317856,208.5 C91.0194959,208.5 46.1928559,163.16969 46.1928559,107.25 C46.1928559,51.3303102 91.0194959,6 146.317856,6 C201.616216,6 246.442856,51.3303102 246.442856,107.25 Z" id="Fill-7"></path>
            <path d="M143.25647,55.3697273 C171.253342,71.3554914 181.372694,106.692444 166.193666,135.130277 L165.350387,136.812989 C150.845983,164.072923 160.796679,197.895434 187.950272,212.871571 C215.103865,227.847708 249.172348,218.424521 264.520032,191.6694 L265.531967,189.986688 C281.722929,161.885397 317.646627,151.789125 346.318123,167.606618 C375.158274,183.592382 385.614937,219.938962 369.592631,248.713337 C322.368991,333.690294 215.103865,364.315652 130.101313,317.199716 C44.7614489,270.08378 13.897427,163.063296 61.1210671,78.0863394 C76.9747178,49.4802353 112.72976,39.0474208 141.569911,54.3601001 L142.413191,54.8649137 L143.25647,55.3697273 Z" id="Fill-1-Copy-2" transform="translate(208.052632, 193.315955) rotate(19.000000) translate(-208.052632, -193.315955) "></path>
            <path d="M1186.44286,236.164336 C1186.44286,292.084026 1141.61622,337.414336 1086.31786,337.414336 C1031.0195,337.414336 986.192856,292.084026 986.192856,236.164336 C986.192856,180.244646 1031.0195,134.914336 1086.31786,134.914336 C1141.61622,134.914336 1186.44286,180.244646 1186.44286,236.164336 Z" id="Fill-7"></path>
            <path d="M971.406024,151.878415 C968.222846,120.645019 991.312095,92.9307633 1023.06251,90.2005943 C1054.28821,87.4572758 1082.12981,110.256899 1085.27147,141.123752 L1102.46097,310.164112 C1105.68732,341.760764 1082.01523,369.616377 1050.06722,371.924118 L878.788329,384.559163 C847.521118,386.937582 820.004977,363.731967 817.231942,332.822378 C814.419056,301.54789 838.130992,274.057176 869.712037,271.790527 L982.667534,263.507974 L971.406024,151.878415 Z" id="Fill-4" transform="translate(959.880356, 237.351836) rotate(74.000000) translate(-959.880356, -237.351836) "></path>
            <path d="M722.852619,223.807577 C741.482425,250.099853 735.832311,287.149678 710.015055,306.753684 L554.586935,424.439179 C528.371443,444.304619 491.500743,438.882309 472.053609,412.416119 C452.609738,385.950623 458.167037,348.534875 484.380898,328.669089 L639.809017,210.983593 C665.789413,191.414302 702.242652,196.401609 721.828805,222.205035 L722.340712,223.006306 L722.852619,223.807577 Z" id="Fill-1-Copy" transform="translate(597.130356, 317.726836) rotate(10.000000) translate(-597.130356, -317.726836) "></path>
            <path d="M1562.85262,193.807577 C1581.48242,220.099853 1575.83231,257.149678 1550.01505,276.753684 L1394.58693,394.439179 C1368.37144,414.304619 1331.50074,408.882309 1312.05361,382.416119 C1292.60974,355.950623 1298.16704,318.534875 1324.3809,298.669089 L1479.80902,180.983593 C1505.78941,161.414302 1542.24265,166.401609 1561.8288,192.205035 L1562.34071,193.006306 L1562.85262,193.807577 Z" id="Fill-1-Copy" transform="translate(1437.130356, 287.726836) rotate(10.000000) translate(-1437.130356, -287.726836) "></path>
        </g>
    </g>
</svg>