<svg width="24" height="24" viewBox="0 0 24 24" fill="none" xmlns="http://www.w3.org/2000/svg">
<path d="M19.5554 11.9075C19.0801 11.4235 18.9741 10.6883 19.2934 10.0896C19.5214 9.66298 19.5374 9.15568 19.3361 8.71504C19.1354 8.27507 18.7408 7.95375 18.2688 7.84709C17.6082 7.6971 17.1209 7.13581 17.0669 6.45985C17.0276 5.97788 16.7663 5.54124 16.359 5.27992C15.953 5.01794 15.4477 4.96127 14.9924 5.12726C14.3551 5.35858 13.6418 5.1486 13.2311 4.60996C12.9378 4.22599 12.4819 4 11.9979 4C11.5146 4 11.0586 4.22599 10.7653 4.60996C10.3567 5.14926 9.64337 5.35925 9.00608 5.12793C8.55144 4.96261 8.04614 5.01927 7.63949 5.28059C7.23285 5.5419 6.97087 5.97854 6.9322 6.46051C6.87754 7.13647 6.3909 7.69844 5.73028 7.84776C5.25831 7.95442 4.86367 8.27573 4.66301 8.71571C4.46236 9.15568 4.47836 9.66365 4.70634 10.0896C5.02566 10.6876 4.91966 11.4235 4.44503 11.9075C4.10571 12.2522 3.94706 12.7355 4.01572 13.2141C4.08438 13.6927 4.37303 14.112 4.79567 14.3474C5.38763 14.6773 5.69695 15.354 5.55829 16.0173C5.4603 16.4906 5.58762 16.9825 5.90427 17.3478C6.22158 17.7138 6.69089 17.9105 7.17219 17.8798C7.84948 17.8378 8.47411 18.2398 8.71676 18.8724C8.88942 19.3244 9.26339 19.669 9.72803 19.805C10.1913 19.941 10.6926 19.853 11.0819 19.567C11.6279 19.1651 12.3725 19.1651 12.9178 19.567C13.3071 19.8537 13.8084 19.9417 14.2717 19.805C14.7364 19.669 15.1104 19.3237 15.2837 18.8724C15.5257 18.2398 16.151 17.8371 16.8276 17.8798C17.3102 17.9105 17.7789 17.7138 18.0955 17.3478C18.4122 16.9825 18.5401 16.4906 18.4415 16.0173C18.3035 15.354 18.6121 14.6773 19.2048 14.3474C19.6267 14.1114 19.9147 13.6927 19.9841 13.2141C20.0534 12.7355 19.8941 12.2522 19.5554 11.9075V11.9075ZM11.1666 15.5273L8.16679 12.6181L9.40472 11.3802L11.1666 13.0508L14.9284 9.19501L16.1663 10.4329L11.1666 15.5273Z" fill="#6A52DE"/>
</svg>
